# xmcd
#
# Track frame offsets: 
#        150
#        22145
#        40777
#        62485
#        84690
#        108457
#        130582
#        147497
#        170330
#        190665
#        212520
#
# Disc length: 3220 seconds
#
# Revision: 11
# Processed by: cddbd v1.5.2PL0 Copyright (c) Steve Scherf et al.
# Submitted via: ExactAudioCopy v0.99pb4
#
DISCID=940c920b
DTITLE=McAuley Schenker Group - M.S.G.
DYEAR=1992
DGENRE=Hard Rock
TTITLE0=Eve
TTITLE1=Paradise
TTITLE2=When I'm Gone
TTITLE3=This Broken Heart
TTITLE4=We Believe In Love
TTITLE5=Crazy
TTITLE6=Invincible
TTITLE7=What Happens To Me
TTITLE8=Lonely Nights
TTITLE9=This Night Is Gonna Last Forever
TTITLE10=Nightmare
EXTD=
EXTT0=
EXTT1=
EXTT2=
EXTT3=
EXTT4=
EXTT5=
EXTT6=
EXTT7=
EXTT8=
EXTT9=
EXTT10=
PLAYORDER=
